<svg id="Capa_1" enable-background="new 0 0 512 512" height="512" viewBox="0 0 512 512" width="512" xmlns="http://www.w3.org/2000/svg"><g><path d="m356 340h-35v-22.596c12.113-9.575 22.068-21.76 29.02-35.696 7.345 5.214 16.307 8.292 25.98 8.292 24.813 0 45-20.187 45-45v-170c0-41.355-33.645-75-75-75h-180c-41.355 0-75 33.645-75 75v170c0 24.813 20.187 45 45 45 9.673 0 18.635-3.078 25.98-8.292 6.952 13.936 16.907 26.122 29.02 35.696v22.596h-35c-63.411 0-115 51.589-115 115v42c0 8.284 6.716 15 15 15h400c8.284 0 15-6.716 15-15v-42c0-63.411-51.589-115-115-115zm-245 142h-40v-27c0-30.351 16.001-57.022 40-72.062zm80 0h-50v-110.648c4.873-.872 9.88-1.352 15-1.352h35zm140-332h-150v-60h150zm60 95c0 8.271-6.729 15-15 15s-15-6.729-15-15v-45h30zm-240 0c0 8.271-6.729 15-15 15s-15-6.729-15-15v-45h30zm0-170v95h-30v-95c0-24.813 20.187-45 45-45h180c24.813 0 45 20.187 45 45v95h-30v-95c0-8.284-6.716-15-15-15h-180c-8.284 0-15 6.716-15 15zm30 160v-55h150v55c0 41.355-33.645 75-75 75s-75-33.645-75-75zm190 247h-150v-148.006c10.953 3.884 22.732 6.006 35 6.006s24.047-2.122 35-6.006v21.006c0 8.284 6.716 15 15 15h50c5.12 0 10.127.48 15 1.352zm70 0h-40v-99.062c23.999 15.041 40 41.711 40 72.062z"/><circle cx="256" cy="445" r="15"/><circle cx="256" cy="385" r="15"/></g></svg>